<?xml version="1.0" standalone="no"?><!DOCTYPE svg PUBLIC "-//W3C//DTD SVG 1.1//EN" "http://www.w3.org/Graphics/SVG/1.1/DTD/svg11.dtd"><svg t="1758954057732" class="icon" viewBox="0 0 1024 1024" version="1.1" xmlns="http://www.w3.org/2000/svg" p-id="9380" xmlns:xlink="http://www.w3.org/1999/xlink" width="64" height="64"><path d="M650.101622 193.72973v158.304865a13.837838 13.837838 0 0 0 13.837837 13.837837H830.27027v55.351352H663.939459a69.189189 69.189189 0 0 1-69.189189-69.189189V193.72973h55.351352zM373.898378 830.27027V671.965405a13.837838 13.837838 0 0 0-13.837837-13.837837H193.72973v-55.351352h166.330811a69.189189 69.189189 0 0 1 69.189189 69.189189V830.27027h-55.351352zM373.898378 193.72973v158.304865a13.837838 13.837838 0 0 1-13.837837 13.837837H193.72973v55.351352h166.330811a69.189189 69.189189 0 0 0 69.189189-69.189189V193.72973h-55.351352zM650.101622 830.27027V671.965405a13.837838 13.837838 0 0 1 13.837837-13.837837H830.27027v-55.351352H663.939459a69.189189 69.189189 0 0 0-69.189189 69.189189V830.27027h55.351352z" fill="#bfbfbf" p-id="9381"></path></svg>