<?xml version="1.0" standalone="no"?><!DOCTYPE svg PUBLIC "-//W3C//DTD SVG 1.1//EN" "http://www.w3.org/Graphics/SVG/1.1/DTD/svg11.dtd"><svg t="1758954134385" class="icon" viewBox="0 0 1024 1024" version="1.1" xmlns="http://www.w3.org/2000/svg" p-id="11583" xmlns:xlink="http://www.w3.org/1999/xlink" width="64" height="64"><path d="M963.179903 569.654158a49.837495 49.837495 0 0 0-53.894035-44.042437 49.837495 49.837495 0 0 0-54.473541 44.042437A343.646913 343.646913 0 1 1 511.744919 231.802303a347.703454 347.703454 0 0 1 95.038944 13.328632h3.477035l-57.950576 52.155518A66.063656 66.063656 0 0 0 640.395197 393.484409l146.614956-130.968301a65.48415 65.48415 0 0 0 5.215552-92.720921L661.257404 22.021219a66.063656 66.063656 0 0 0-98.515979 87.505369l15.646656 17.385173a425.357225 425.357225 0 0 0-66.643162-5.795058 451.434984 451.434984 0 1 0 451.434984 450.855478z" p-id="11584" fill="#bfbfbf"></path></svg>