<svg viewBox="0 0 1024 1024" xmlns="http://www.w3.org/2000/svg">
  <path d="M625.9 115c-5.9 0-11.9 1.6-17.4 5.3L254 352H90c-8.8 0-16 7.2-16 16v288c0 8.8 7.2 16 16 16h164l354.5 231.7c5.5 3.6 11.6 5.3 17.4 5.3 16.7 0 32.1-13.3 32.1-32.1V147.1c0-18.8-15.4-32.1-32.1-32.1zM586 803L293.4 611.7l-18-11.7H146V424h129.4l17.9-11.7L586 221v582zm348-327H806c-8.8 0-16 7.2-16 16s7.2 16 16 16h128c8.8 0 16-7.2 16-16s-7.2-16-16-16z" fill="#ffffff"/>
<path d="M712.9 383.1c-9.4-9.4-24.6-9.4-33.9 0L631.5 431l-47.5-47.9c-9.4-9.4-24.6-9.4-33.9 0s-9.4 24.6 0 33.9L598 465l-47.9 47.9c-9.4 9.4-9.4 24.6 0 33.9 4.7 4.7 10.8 7 17 7s12.3-2.3 17-7L631.5 499l47.5 47.9c4.7 4.7 10.8 7 17 7s12.3-2.3 17-7c9.4-9.4 9.4-24.6 0-33.9L665.1 465l47.9-47.9c9.3-9.4 9.3-24.6-.1-34z" fill="#ffffff"/>
</svg>