<svg viewBox="0 0 1024 1024" xmlns="http://www.w3.org/2000/svg">
  <path d="M625.9 115c-5.9 0-11.9 1.6-17.4 5.3L254 352H90c-8.8 0-16 7.2-16 16v288c0 8.8 7.2 16 16 16h164l354.5 231.7c5.5 3.6 11.6 5.3 17.4 5.3 16.7 0 32.1-13.3 32.1-32.1V147.1c0-18.8-15.4-32.1-32.1-32.1zM586 803L293.4 611.7l-18-11.7H146V424h129.4l17.9-11.7L586 221v582zm348-327H806c-8.8 0-16 7.2-16 16s7.2 16 16 16h128c8.8 0 16-7.2 16-16s-7.2-16-16-16zm-41.9 261.8l-110.3-63.7a15.9 15.9 0 0 0-21.7 5.9c-5.4 9.4-2.2 21.4 7.2 26.8l110.3 63.7c9.4 5.4 21.4 2.2 26.8-7.2 5.4-9.4 2.2-21.4-7.3-26.8v.3zm0-373.6c9.4-5.4 12.7-17.4 7.2-26.8-5.4-9.4-17.4-12.7-26.8-7.2L762.2 394c-9.4 5.4-12.7 17.4-7.2 26.8 5.4 9.4 17.4 12.7 26.8 7.2l110.3-63.7z" fill="#ffffff"/>
</svg>